@startuml

!includesub base.puml!Turma
!includesub base.puml!PropostaProjeto
!includesub base_telas.puml!TelaTurmaAluno

class TelaProposta <<boundary>> {
  informarDados()
  confirmarEnvio()
}

class ControladorProposta <<control>> {
  registrarProposta()
  adicionarProposta()
  notificarProfessor()
}

TelaProposta -- TelaTurmaAluno
TelaProposta -- ControladorProposta
ControladorProposta -- PropostaProjeto
ControladorProposta -- Turma
@enduml
