@startuml
folder Model{

    class Pessoa{
        nome: String
        idade: Int
        cep: String
        numero: String
        complemento: String
        telefone: String[]
        getNome()
        getCep()
    }

    class Professor {
        matricula: String 
        getMatricula()
    }

    class Aluno {
        matricula: String
        dataDeEntrada: Data
        getMatricula()
        getDataDeEntrada()
    }

    class Gestor {
        cadastrarProfessor()
        aprovarProposta()
    }

    class BaseProjeto {
        titulo: String
        descricao: String
        status: String
        criacao: Data
        autor: Pessoa
        membros: Pessoa[]
        tags: String[]
        departamento: String
        links: URL[]

        getTitulo()
        getDescricao()
        getProfessor()
        getMembros()
    }

    class Projeto {
        entrega: Data
        productOwner: Pessoa

        informaRevisao()
        efetuarMudancas()
        persisteMudancas()
        efetuarProjeto()
        registrarMembros()
        verificarProjeto()
    }

    class Proposta{
        aprovarProposta()
        rejeitarProposta()
    }

    BaseProjeto <|-- Proposta
    BaseProjeto <|-- Projeto


    class Turma {
        codigo: String
        disciplina: String
        departamento: String
        horario: String
        numeroSala: Int
        semestre: Data
        getCodigo()
        getDisciplina()
        getDepartamento()
    }

    Pessoa <|-- Professor
    Pessoa <|-- Aluno
    Pessoa <|-- Gestor

    Turma -- Aluno
    Turma -- Professor
}

folder Control{
    
    class Buscador  {
     processarBusca()
     inserirProjetoNoResultado()
     descartarProjetos()
     gerarResultados()
    }

    class VerificadorLogin{
        verificarCadastro()
    }

    class ControladorProjeto{
        tratarRevisao()
        encontrarProjeto()
    }

    class GerenciadorContas{
        enviarDados()
    }

    class ControladorTurma{
        registrarProposta()
    }
}

folder View{
    class TelaLogin{
        inserirDados()
        informarValidez()
    }

    class TelaInicial{
        verificarNotificações()
        acessarProjeto()
        notificarAluno()
        acessarTurma()
        criarProjeto()
        verProjeto()
    }

    class TelaTurma{
        verPropostas()
        revisarProposta()
        escolherProjeto()
        proporProjeto()
    }

    class TelaRevisao{
        enviarRevisao()
    }

    class TelaBusca{
        informarTermoBusca()
        selecionarFiltros()
        confirmarBusca()
        informarResultados()
    }

    class TelaEscolhaProjeto{
        informarMembros()
        selecionarProjeto()
    }

    class TelaCadastro{
        inserirDados()
    }

    class TelaProjeto{
        mudarProjeto()
        informarDados()
    }

    class TelaProposta{
        informarDados()
    }
}
@enduml
